<?xml version="1.0" encoding="UTF-8" standalone="no"?><!DOCTYPE svg PUBLIC "-//W3C//DTD SVG 1.1//EN" "http://www.w3.org/Graphics/SVG/1.1/DTD/svg11.dtd"><svg width="100%" height="100%" viewBox="0 0 1440 15" version="1.1" xmlns="http://www.w3.org/2000/svg" xmlns:xlink="http://www.w3.org/1999/xlink" xml:space="preserve" xmlns:serif="http://www.serif.com/" style="fill-rule:evenodd;clip-rule:evenodd;stroke-linejoin:round;stroke-miterlimit:1.41421;"><g><clipPath id="_clip1"><rect x="0" y="0.653" width="1496.48" height="13.566"/></clipPath><g clip-path="url(#_clip1)"><path d="M855.739,4.836c-2.114,0 -3.104,0.976 -4.475,2.326c-1.595,1.572 -3.582,3.529 -7.41,3.529c-3.829,0 -5.816,-1.957 -7.412,-3.529c-1.37,-1.35 -2.361,-2.326 -4.475,-2.326c-2.114,0 -3.104,0.976 -4.475,2.326c-1.596,1.572 -3.581,3.529 -7.41,3.529c-3.828,0 -5.814,-1.957 -7.411,-3.529c-1.37,-1.35 -2.36,-2.326 -4.474,-2.326c-2.114,0 -3.104,0.976 -4.475,2.326c-1.596,1.572 -3.583,3.529 -7.411,3.529c-3.828,0 -5.814,-1.957 -7.41,-3.529c-1.371,-1.35 -2.361,-2.326 -4.475,-2.326c-2.113,0 -3.105,0.976 -4.474,2.326c-1.596,1.572 -3.583,3.529 -7.411,3.529c-3.829,0 -5.815,-1.957 -7.41,-3.529c-1.371,-1.35 -2.361,-2.326 -4.475,-2.326c-2.114,0 -3.104,0.976 -4.475,2.326c-1.595,1.572 -3.582,3.529 -7.41,3.529c-3.829,0 -5.815,-1.957 -7.411,-3.529c-1.37,-1.35 -2.36,-2.326 -4.474,-2.326c-2.115,0 -3.105,0.976 -4.475,2.326c-1.596,1.572 -3.582,3.529 -7.411,3.529c-3.828,0 -5.814,-1.957 -7.41,-3.529c-1.371,-1.35 -2.361,-2.326 -4.475,-2.326c-2.114,0 -3.104,0.976 -4.475,2.326c-1.596,1.572 -3.582,3.529 -7.41,3.529c-3.829,0 -5.815,-1.957 -7.411,-3.529c-1.37,-1.35 -2.36,-2.326 -4.474,-2.326c-2.114,0 -3.105,0.976 -4.475,2.326c-1.596,1.572 -3.582,3.529 -7.41,3.529c-3.829,0 -5.815,-1.957 -7.411,-3.529c-1.37,-1.35 -2.36,-2.326 -4.474,-2.326c-2.115,0 -3.105,0.976 -4.475,2.326c-1.596,1.572 -3.582,3.529 -7.41,3.529c-3.829,0 -5.815,-1.957 -7.411,-3.529c-1.37,-1.35 -2.36,-2.326 -4.474,-2.326l-0.05,0c-2.08,0.015 -3.066,0.986 -4.426,2.326c-1.595,1.572 -3.582,3.529 -7.41,3.529c-3.829,0 -5.816,-1.957 -7.411,-3.529c-1.371,-1.35 -2.361,-2.326 -4.476,-2.326c-2.114,0 -3.104,0.976 -4.475,2.326c-1.596,1.572 -3.581,3.529 -7.41,3.529c-3.828,0 -5.814,-1.957 -7.411,-3.529c-1.369,-1.35 -2.36,-2.326 -4.474,-2.326c-2.114,0 -3.104,0.976 -4.475,2.326c-1.596,1.572 -3.582,3.529 -7.41,3.529c-3.829,0 -5.815,-1.957 -7.411,-3.529c-1.371,-1.35 -2.361,-2.326 -4.475,-2.326c-2.113,0 -3.105,0.976 -4.474,2.326c-1.596,1.572 -3.583,3.529 -7.411,3.529c-3.829,0 -5.814,-1.957 -7.41,-3.529c-1.371,-1.35 -2.361,-2.326 -4.475,-2.326c-2.113,0 -3.104,0.976 -4.475,2.326c-1.595,1.572 -3.582,3.529 -7.41,3.529c-3.829,0 -5.815,-1.957 -7.41,-3.529c-1.371,-1.35 -2.361,-2.326 -4.475,-2.326c-2.114,0 -3.105,0.976 -4.475,2.326c-1.596,1.572 -3.582,3.529 -7.411,3.529c-3.828,0 -5.814,-1.957 -7.41,-3.529c-1.37,-1.35 -2.361,-2.326 -4.475,-2.326c-2.114,0 -3.104,0.976 -4.475,2.326c-1.595,1.572 -3.582,3.529 -7.41,3.529c-3.829,0 -5.815,-1.957 -7.41,-3.529c-1.371,-1.35 -2.361,-2.326 -4.475,-2.326c-2.114,0 -3.104,0.976 -4.475,2.326c-1.596,1.572 -3.582,3.529 -7.41,3.529c-3.829,0 -5.815,-1.957 -7.411,-3.529c-1.37,-1.35 -2.36,-2.326 -4.474,-2.326c-2.114,0 -3.105,0.976 -4.475,2.326c-1.596,1.572 -3.582,3.529 -7.41,3.529c-3.829,0 -5.815,-1.957 -7.411,-3.529c-1.37,-1.35 -2.36,-2.326 -4.474,-2.326c-2.115,0 -3.105,0.976 -4.476,2.326c-1.595,1.572 -3.582,3.529 -7.41,3.529c-3.829,0 -5.816,-1.957 -7.411,-3.529c-1.371,-1.35 -2.361,-2.326 -4.476,-2.326c-2.114,0 -3.104,0.976 -4.475,2.326c-1.595,1.572 -3.581,3.529 -7.41,3.529c-3.828,0 -5.814,-1.957 -7.41,-3.529c-1.37,-1.35 -2.36,-2.326 -4.475,-2.326c-2.114,0 -3.104,0.976 -4.475,2.326c-1.596,1.572 -3.582,3.529 -7.41,3.529c-3.828,0 -5.815,-1.957 -7.411,-3.529c-1.371,-1.35 -2.361,-2.326 -4.475,-2.326c-2.113,0 -3.104,0.976 -4.474,2.326c-1.596,1.572 -3.583,3.529 -7.411,3.529c-3.829,0 -5.814,-1.957 -7.41,-3.529c-1.371,-1.35 -2.361,-2.326 -4.475,-2.326c-2.113,0 -3.104,0.976 -4.474,2.326c-1.596,1.572 -3.583,3.529 -7.411,3.529c-3.828,0 -5.815,-1.957 -7.41,-3.529c-1.371,-1.35 -2.361,-2.326 -4.475,-2.326c-2.114,0 -3.104,0.976 -4.475,2.326c-1.596,1.572 -3.582,3.529 -7.41,3.529c-3.829,0 -5.815,-1.957 -7.411,-3.529c-1.37,-1.35 -2.361,-2.326 -4.475,-2.326c-2.114,0 -3.104,0.976 -4.475,2.326c-1.595,1.572 -3.582,3.529 -7.41,3.529c-3.828,0 -5.814,-1.957 -7.41,-3.529c-1.371,-1.35 -2.361,-2.326 -4.475,-2.326c-2.114,0 -3.104,0.976 -4.475,2.326c-1.596,1.572 -3.582,3.529 -7.41,3.529c-3.829,0 -5.815,-1.957 -7.41,-3.529c-1.371,-1.35 -2.361,-2.326 -4.475,-2.326c-2.114,0 -3.104,0.976 -4.475,2.326c-1.596,1.572 -3.582,3.529 -7.41,3.529c-3.829,0 -5.815,-1.957 -7.411,-3.529c-1.37,-1.35 -2.36,-2.326 -4.474,-2.326l-0.049,0c-2.081,0.015 -3.066,0.986 -4.426,2.326c-1.596,1.572 -3.583,3.529 -7.411,3.529c-3.829,0 -5.816,-1.957 -7.411,-3.529c-1.371,-1.35 -2.361,-2.326 -4.475,-2.326c-2.115,0 -3.105,0.976 -4.476,2.326c-1.595,1.572 -3.581,3.529 -7.41,3.529c-3.828,0 -5.814,-1.957 -7.41,-3.529c-1.37,-1.35 -2.36,-2.326 -4.475,-2.326c-2.114,0 -3.104,0.976 -4.475,2.326c-1.596,1.572 -3.582,3.529 -7.41,3.529c-3.828,0 -5.815,-1.957 -7.411,-3.529c-1.37,-1.35 -2.361,-2.326 -4.475,-2.326c-2.113,0 -3.104,0.976 -4.474,2.326c-1.596,1.572 -3.582,3.529 -7.41,3.529c-3.829,0 -5.815,-1.957 -7.411,-3.529c-1.371,-1.35 -2.361,-2.326 -4.475,-2.326c-2.113,0 -3.103,0.976 -4.474,2.326c-1.596,1.572 -3.583,3.529 -7.411,3.529c-3.828,0 -5.814,-1.957 -7.41,-3.529c-1.371,-1.35 -2.361,-2.326 -4.475,-2.326c-2.114,0 -3.104,0.976 -4.475,2.326c-1.596,1.572 -3.582,3.529 -7.41,3.529c-3.829,0 -5.815,-1.957 -7.411,-3.529c-1.37,-1.35 -2.36,-2.326 -4.475,-2.326c-2.114,0 -3.104,0.976 -4.474,2.326c-1.596,1.572 -3.582,3.529 -7.411,3.529c-3.828,0 -5.814,-1.957 -7.41,-3.529c-1.371,-1.35 -2.361,-2.326 -4.475,-2.326c-2.114,0 -3.104,0.976 -4.475,2.326c-1.595,1.572 -3.581,3.529 -7.41,3.529c-3.828,0 -5.815,-1.957 -7.41,-3.529c-1.371,-1.35 -2.361,-2.326 -4.475,-2.326c-2.114,0 -3.104,0.976 -4.475,2.326c-1.596,1.572 -3.582,3.529 -7.41,3.529c-3.829,0 -5.815,-1.957 -7.41,-3.529c-1.371,-1.35 -2.361,-2.326 -4.475,-2.326l0,-4.183c3.828,0 5.814,1.957 7.41,3.53c1.371,1.35 2.361,2.326 4.475,2.326c2.114,0 3.104,-0.976 4.475,-2.326c1.595,-1.573 3.581,-3.53 7.41,-3.53c3.828,0 5.814,1.957 7.41,3.53c1.371,1.35 2.361,2.326 4.475,2.326c2.114,0 3.104,-0.976 4.475,-2.326c1.596,-1.573 3.582,-3.53 7.41,-3.53c3.829,0 5.815,1.957 7.41,3.53c1.371,1.35 2.361,2.326 4.475,2.326c2.114,0 3.105,-0.976 4.475,-2.326c1.596,-1.573 3.582,-3.53 7.41,-3.53c3.829,0 5.815,1.957 7.411,3.53c1.37,1.35 2.361,2.326 4.475,2.326c2.114,0 3.104,-0.976 4.475,-2.326c1.595,-1.573 3.581,-3.53 7.41,-3.53c3.828,0 5.814,1.957 7.41,3.53c1.371,1.35 2.361,2.326 4.475,2.326c2.115,0 3.105,-0.976 4.475,-2.326c1.596,-1.573 3.582,-3.53 7.41,-3.53c3.829,0 5.815,1.957 7.41,3.53c1.371,1.35 2.361,2.326 4.476,2.326c2.114,0 3.104,-0.976 4.474,-2.326c1.596,-1.573 3.582,-3.53 7.41,-3.53c3.829,0 5.815,1.957 7.411,3.53c1.37,1.35 2.361,2.326 4.475,2.326c2.114,0 3.104,-0.976 4.475,-2.326c1.596,-1.573 3.581,-3.53 7.41,-3.53c3.828,0 5.815,1.957 7.411,3.53c1.37,1.35 2.36,2.326 4.474,2.326c2.114,0 3.104,-0.976 4.475,-2.326c1.596,-1.573 3.583,-3.53 7.411,-3.53c3.829,0 5.814,1.957 7.411,3.53c1.37,1.35 2.36,2.326 4.475,2.326c2.115,0 3.105,-0.976 4.476,-2.326c1.595,-1.573 3.581,-3.53 7.41,-3.53l0.045,0c3.799,0.016 5.776,1.963 7.365,3.53c1.371,1.35 2.361,2.326 4.475,2.326c2.114,0 3.104,-0.976 4.475,-2.326c1.595,-1.573 3.581,-3.53 7.41,-3.53c3.828,0 5.814,1.957 7.41,3.53c1.371,1.35 2.361,2.326 4.475,2.326c2.114,0 3.104,-0.976 4.475,-2.326c1.595,-1.573 3.581,-3.53 7.41,-3.53c3.828,0 5.814,1.957 7.41,3.53c1.371,1.35 2.361,2.326 4.475,2.326c2.114,0 3.104,-0.976 4.475,-2.326c1.596,-1.573 3.582,-3.53 7.41,-3.53c3.829,0 5.815,1.957 7.411,3.53c1.37,1.35 2.361,2.326 4.475,2.326c2.114,0 3.104,-0.976 4.474,-2.326c1.596,-1.573 3.582,-3.53 7.411,-3.53c3.828,0 5.814,1.957 7.41,3.53c1.371,1.35 2.361,2.326 4.475,2.326c2.115,0 3.105,-0.976 4.474,-2.326c1.597,-1.573 3.583,-3.53 7.411,-3.53c3.829,0 5.815,1.957 7.41,3.53c1.371,1.35 2.361,2.326 4.475,2.326c2.115,0 3.105,-0.976 4.475,-2.326c1.596,-1.573 3.582,-3.53 7.41,-3.53c3.829,0 5.815,1.957 7.41,3.53c1.371,1.35 2.361,2.326 4.476,2.326c2.114,0 3.104,-0.976 4.475,-2.326c1.596,-1.573 3.581,-3.53 7.41,-3.53c3.828,0 5.815,1.957 7.411,3.53c1.369,1.35 2.36,2.326 4.474,2.326c2.114,0 3.104,-0.976 4.475,-2.326c1.596,-1.573 3.582,-3.53 7.41,-3.53c3.83,0 5.815,1.957 7.412,3.53c1.37,1.35 2.36,2.326 4.475,2.326c2.114,0 3.105,-0.976 4.475,-2.326c1.596,-1.573 3.582,-3.53 7.411,-3.53c3.828,0 5.814,1.957 7.41,3.53c1.37,1.35 2.361,2.326 4.475,2.326c2.114,0 3.104,-0.976 4.474,-2.326c1.596,-1.573 3.582,-3.53 7.411,-3.53c3.828,0 5.814,1.957 7.41,3.53c1.37,1.35 2.361,2.326 4.475,2.326c2.114,0 3.104,-0.976 4.475,-2.326c1.595,-1.573 3.581,-3.53 7.41,-3.53c3.828,0 5.814,1.957 7.41,3.53c1.371,1.35 2.361,2.326 4.475,2.326c2.114,0 3.104,-0.976 4.475,-2.326c1.596,-1.573 3.582,-3.53 7.41,-3.53c3.829,0 5.815,1.957 7.411,3.53c1.37,1.35 2.36,2.326 4.474,2.326c2.115,0 3.105,-0.976 4.475,-2.326c1.596,-1.573 3.582,-3.53 7.411,-3.53c3.828,0 5.814,1.957 7.41,3.53c1.371,1.35 2.361,2.326 4.475,2.326c2.114,0 3.105,-0.976 4.474,-2.326c1.597,-1.573 3.583,-3.53 7.411,-3.53c3.829,0 5.814,1.957 7.41,3.53c1.371,1.35 2.361,2.326 4.475,2.326c2.115,0 3.105,-0.976 4.475,-2.326c1.596,-1.573 3.582,-3.53 7.41,-3.53c3.829,0 5.815,1.957 7.41,3.53c1.371,1.35 2.361,2.326 4.476,2.326c2.114,0 3.104,-0.976 4.475,-2.326c1.595,-1.573 3.581,-3.53 7.41,-3.53c3.828,0 5.815,1.957 7.41,3.53c1.37,1.35 2.36,2.326 4.475,2.326c2.114,0 3.104,-0.976 4.475,-2.326c1.596,-1.573 3.582,-3.53 7.41,-3.53c3.829,0 5.815,1.957 7.412,3.53c1.369,1.35 2.36,2.326 4.475,2.326c2.114,0 3.104,-0.976 4.475,-2.326c1.596,-1.573 3.582,-3.53 7.411,-3.53l0.044,0c3.799,0.016 5.776,1.963 7.366,3.53c1.37,1.35 2.36,2.326 4.475,2.326c2.114,0 3.104,-0.976 4.474,-2.326c1.596,-1.573 3.582,-3.53 7.411,-3.53c3.828,0 5.814,1.957 7.41,3.53c1.37,1.35 2.361,2.326 4.475,2.326c2.114,0 3.104,-0.976 4.474,-2.326c1.596,-1.573 3.582,-3.53 7.411,-3.53c3.828,0 5.814,1.957 7.41,3.53c1.37,1.35 2.361,2.326 4.475,2.326c2.114,0 3.104,-0.976 4.475,-2.326c1.595,-1.573 3.582,-3.53 7.41,-3.53c3.829,0 5.815,1.957 7.411,3.53c1.37,1.35 2.36,2.326 4.474,2.326c2.114,0 3.105,-0.976 4.475,-2.326c1.596,-1.573 3.582,-3.53 7.411,-3.53c3.828,0 5.814,1.957 7.41,3.53c1.37,1.35 2.361,2.326 4.475,2.326c2.114,0 3.104,-0.976 4.474,-2.326c1.597,-1.573 3.583,-3.53 7.411,-3.53c3.829,0 5.814,1.957 7.41,3.53c1.371,1.35 2.361,2.326 4.475,2.326c2.114,0 3.105,-0.976 4.474,-2.326c1.597,-1.573 3.583,-3.53 7.411,-3.53c3.829,0 5.815,1.957 7.41,3.53c1.371,1.35 2.361,2.326 4.475,2.326c2.115,0 3.105,-0.976 4.476,-2.326c1.595,-1.573 3.581,-3.53 7.41,-3.53c3.828,0 5.815,1.957 7.41,3.53c1.37,1.35 2.36,2.326 4.475,2.326c2.114,0 3.104,-0.976 4.475,-2.326c1.595,-1.573 3.582,-3.53 7.41,-3.53c3.829,0 5.815,1.957 7.412,3.53c1.369,1.35 2.36,2.326 4.475,2.326c2.114,0 3.104,-0.976 4.475,-2.326c1.596,-1.573 3.581,-3.53 7.41,-3.53c3.829,0 5.815,1.957 7.411,3.53c1.37,1.35 2.36,2.326 4.474,2.326c2.114,0 3.105,-0.976 4.475,-2.326c1.596,-1.573 3.582,-3.53 7.41,-3.53c3.829,0 5.815,1.957 7.411,3.53c1.37,1.35 2.36,2.326 4.475,2.326c2.114,0 3.104,-0.976 4.474,-2.326c1.596,-1.573 3.582,-3.53 7.411,-3.53c3.828,0 5.814,1.957 7.41,3.53c1.37,1.35 2.361,2.326 4.475,2.326c2.114,0 3.104,-0.976 4.475,-2.326c1.595,-1.573 3.581,-3.53 7.41,-3.53c3.829,0 5.815,1.957 7.41,3.53c1.371,1.35 2.361,2.326 4.475,2.326c2.114,0 3.105,-0.976 4.475,-2.326c1.596,-1.573 3.582,-3.53 7.41,-3.53c3.829,0 5.815,1.957 7.411,3.53c1.37,1.35 2.361,2.326 4.475,2.326c2.114,0 3.104,-0.976 4.474,-2.326c1.597,-1.573 3.582,-3.53 7.41,-3.53c3.83,0 5.815,1.957 7.411,3.53c1.371,1.35 2.361,2.326 4.475,2.326c2.114,0 3.105,-0.976 4.474,-2.326c1.597,-1.573 3.583,-3.53 7.411,-3.53c3.829,0 5.814,1.957 7.41,3.53c1.371,1.35 2.361,2.326 4.475,2.326c2.115,0 3.105,-0.976 4.476,-2.326c1.595,-1.573 3.581,-3.53 7.41,-3.53c3.828,0 5.815,1.957 7.41,3.53c1.37,1.35 2.36,2.326 4.474,2.326c2.115,0 3.105,-0.976 4.476,-2.326c1.595,-1.573 3.582,-3.53 7.41,-3.53c3.829,0 5.815,1.957 7.411,3.53c1.37,1.35 2.36,2.326 4.476,2.326c2.114,0 3.104,-0.976 4.475,-2.326c1.596,-1.573 3.581,-3.53 7.41,-3.53l0.045,0c3.799,0.016 5.776,1.963 7.366,3.53c1.37,1.35 2.36,2.326 4.474,2.326c2.114,0 3.105,-0.976 4.475,-2.326c1.596,-1.573 3.582,-3.53 7.41,-3.53c3.829,0 5.815,1.957 7.411,3.53c1.37,1.35 2.36,2.326 4.474,2.326c2.115,0 3.105,-0.976 4.475,-2.326c1.596,-1.573 3.582,-3.53 7.41,-3.53c3.829,0 5.815,1.957 7.411,3.53c1.37,1.35 2.36,2.326 4.475,2.326c2.114,0 3.104,-0.976 4.474,-2.326c1.596,-1.573 3.582,-3.53 7.411,-3.53c3.828,0 5.814,1.957 7.41,3.53c1.371,1.35 2.361,2.326 4.475,2.326c2.114,0 3.104,-0.976 4.475,-2.326c1.596,-1.573 3.582,-3.53 7.41,-3.53c3.829,0 5.815,1.957 7.411,3.53c1.37,1.35 2.361,2.326 4.475,2.326c2.114,0 3.104,-0.976 4.474,-2.326c1.597,-1.573 3.582,-3.53 7.41,-3.53c3.829,0 5.815,1.957 7.411,3.53c1.37,1.35 2.361,2.326 4.475,2.326c2.114,0 3.104,-0.976 4.474,-2.326c1.597,-1.573 3.583,-3.53 7.411,-3.53c3.829,0 5.814,1.957 7.41,3.53c1.371,1.35 2.361,2.326 4.475,2.326c2.114,0 3.105,-0.976 4.475,-2.326c1.596,-1.573 3.582,-3.53 7.411,-3.53c3.828,0 5.814,1.957 7.41,3.53c1.37,1.35 2.36,2.326 4.474,2.326c2.115,0 3.105,-0.976 4.476,-2.326c1.595,-1.573 3.582,-3.53 7.41,-3.53c3.829,0 5.815,1.957 7.411,3.53c1.37,1.35 2.36,2.326 4.476,2.326c2.114,0 3.104,-0.976 4.475,-2.326c1.596,-1.573 3.581,-3.53 7.41,-3.53c3.829,0 5.815,1.957 7.41,3.53c1.371,1.35 2.361,2.326 4.475,2.326c2.114,0 3.104,-0.976 4.475,-2.326c1.596,-1.573 3.582,-3.53 7.41,-3.53c3.829,0 5.815,1.957 7.41,3.53c1.371,1.35 2.361,2.326 4.475,2.326c2.114,0 3.105,-0.976 4.475,-2.326c1.596,-1.573 3.582,-3.53 7.41,-3.53c3.829,0 5.815,1.957 7.411,3.53c1.37,1.35 2.36,2.326 4.474,2.326c2.115,0 3.105,-0.976 4.475,-2.326c1.596,-1.573 3.582,-3.53 7.411,-3.53c3.828,0 5.814,1.957 7.41,3.53c1.371,1.35 2.361,2.326 4.475,2.326c2.114,0 3.104,-0.976 4.475,-2.326c1.596,-1.573 3.582,-3.53 7.41,-3.53c3.829,0 5.815,1.957 7.411,3.53c1.37,1.35 2.36,2.326 4.474,2.326c2.115,0 3.105,-0.976 4.475,-2.326c1.597,-1.573 3.582,-3.53 7.41,-3.53c3.829,0 5.815,1.957 7.411,3.53c1.37,1.35 2.361,2.326 4.475,2.326c2.114,0 3.104,-0.976 4.474,-2.326c1.597,-1.573 3.582,-3.53 7.41,-3.53c3.829,0 5.815,1.957 7.411,3.53c1.371,1.35 2.361,2.326 4.475,2.326c2.114,0 3.104,-0.976 4.475,-2.326c1.596,-1.573 3.582,-3.53 7.411,-3.53c3.828,0 5.814,1.957 7.41,3.53c1.37,1.35 2.36,2.326 4.474,2.326c2.114,0 3.105,-0.976 4.475,-2.326c1.596,-1.573 3.583,-3.53 7.411,-3.53c3.829,0 5.815,1.957 7.411,3.53c1.37,1.35 2.36,2.326 4.476,2.326c2.114,0 3.104,-0.976 4.475,-2.326c1.595,-1.573 3.581,-3.53 7.41,-3.53l0.045,0c3.799,0.016 5.776,1.963 7.365,3.53c1.371,1.35 2.361,2.326 4.475,2.326c2.114,0 3.104,-0.976 4.475,-2.326c1.595,-1.573 3.582,-3.53 7.41,-3.53c3.828,0 5.815,1.957 7.41,3.53c1.371,1.35 2.361,2.326 4.475,2.326c2.114,0 3.104,-0.976 4.475,-2.326c1.596,-1.573 3.582,-3.53 7.41,-3.53c3.829,0 5.815,1.957 7.411,3.53c1.37,1.35 2.36,2.326 4.474,2.326c2.114,0 3.105,-0.976 4.475,-2.326c1.596,-1.573 3.582,-3.53 7.411,-3.53c3.828,0 5.814,1.957 7.41,3.53c1.371,1.35 2.361,2.326 4.475,2.326c2.114,0 3.104,-0.976 4.475,-2.326c1.595,-1.573 3.582,-3.53 7.41,-3.53c3.829,0 5.815,1.957 7.41,3.53c1.371,1.35 2.361,2.326 4.475,2.326c2.115,0 3.105,-0.976 4.475,-2.326c1.596,-1.573 3.582,-3.53 7.41,-3.53c3.829,0 5.815,1.957 7.41,3.53c1.371,1.35 2.361,2.326 4.476,2.326c2.114,0 3.104,-0.976 4.474,-2.326c1.597,-1.573 3.582,-3.53 7.41,-3.53c3.829,0 5.815,1.957 7.411,3.53c1.37,1.35 2.361,2.326 4.475,2.326c2.114,0 3.104,-0.976 4.475,-2.326c1.596,-1.573 3.581,-3.53 7.411,-3.53c3.828,0 5.814,1.957 7.41,3.53c1.37,1.35 2.36,2.326 4.474,2.326c2.114,0 3.105,-0.976 4.475,-2.326c1.596,-1.573 3.583,-3.53 7.411,-3.53c3.829,0 5.814,1.957 7.411,3.53c1.37,1.35 2.36,2.326 4.475,2.326c2.115,0 3.105,-0.976 4.476,-2.326c1.595,-1.573 3.581,-3.53 7.41,-3.53l0,4.183c-2.114,0 -3.104,0.976 -4.475,2.326c-1.596,1.572 -3.583,3.529 -7.411,3.529c-3.829,0 -5.815,-1.957 -7.411,-3.529c-1.371,-1.35 -2.361,-2.326 -4.475,-2.326c-2.115,0 -3.105,0.976 -4.476,2.326c-1.595,1.572 -3.581,3.529 -7.41,3.529c-3.828,0 -5.814,-1.957 -7.41,-3.529c-1.37,-1.35 -2.36,-2.326 -4.474,-2.326c-2.115,0 -3.105,0.976 -4.476,2.326c-1.595,1.572 -3.582,3.529 -7.41,3.529c-3.828,0 -5.815,-1.957 -7.41,-3.529c-1.371,-1.35 -2.361,-2.326 -4.476,-2.326c-2.113,0 -3.104,0.976 -4.474,2.326c-1.596,1.572 -3.582,3.529 -7.41,3.529c-3.829,0 -5.815,-1.957 -7.411,-3.529c-1.37,-1.35 -2.361,-2.326 -4.475,-2.326c-2.113,0 -3.103,0.976 -4.474,2.326c-1.596,1.572 -3.582,3.529 -7.411,3.529c-3.828,0 -5.814,-1.957 -7.41,-3.529c-1.371,-1.35 -2.361,-2.326 -4.475,-2.326c-2.114,0 -3.104,0.976 -4.475,2.326c-1.596,1.572 -3.582,3.529 -7.41,3.529c-3.829,0 -5.815,-1.957 -7.411,-3.529c-1.37,-1.35 -2.36,-2.326 -4.474,-2.326c-2.115,0 -3.105,0.976 -4.475,2.326c-1.596,1.572 -3.582,3.529 -7.411,3.529c-3.828,0 -5.814,-1.957 -7.41,-3.529c-1.37,-1.35 -2.361,-2.326 -4.475,-2.326c-2.114,0 -3.104,0.976 -4.474,2.326c-1.596,1.572 -3.582,3.529 -7.411,3.529c-3.828,0 -5.814,-1.957 -7.41,-3.529c-1.371,-1.35 -2.361,-2.326 -4.475,-2.326c-2.114,0 -3.104,0.976 -4.475,2.326c-1.595,1.572 -3.582,3.529 -7.41,3.529c-3.828,0 -5.814,-1.957 -7.41,-3.529c-1.371,-1.35 -2.361,-2.326 -4.475,-2.326l-0.049,0c-2.081,0.015 -3.066,0.986 -4.426,2.326c-1.596,1.572 -3.582,3.529 -7.41,3.529c-3.83,0 -5.816,-1.957 -7.412,-3.529c-1.371,-1.35 -2.361,-2.326 -4.475,-2.326c-2.114,0 -3.105,0.976 -4.475,2.326c-1.596,1.572 -3.582,3.529 -7.411,3.529c-3.828,0 -5.813,-1.957 -7.41,-3.529c-1.37,-1.35 -2.36,-2.326 -4.474,-2.326c-2.115,0 -3.105,0.976 -4.476,2.326c-1.595,1.572 -3.582,3.529 -7.41,3.529c-3.828,0 -5.815,-1.957 -7.41,-3.529c-1.371,-1.35 -2.361,-2.326 -4.476,-2.326c-2.113,0 -3.104,0.976 -4.474,2.326c-1.595,1.572 -3.582,3.529 -7.41,3.529c-3.829,0 -5.815,-1.957 -7.411,-3.529c-1.37,-1.35 -2.361,-2.326 -4.475,-2.326c-2.113,0 -3.103,0.976 -4.474,2.326c-1.596,1.572 -3.582,3.529 -7.411,3.529c-3.828,0 -5.814,-1.957 -7.41,-3.529c-1.371,-1.35 -2.361,-2.326 -4.475,-2.326c-2.114,0 -3.104,0.976 -4.475,2.326c-1.595,1.572 -3.582,3.529 -7.41,3.529c-3.829,0 -5.815,-1.957 -7.41,-3.529c-1.371,-1.35 -2.361,-2.326 -4.475,-2.326c-2.114,0 -3.105,0.976 -4.475,2.326c-1.596,1.572 -3.582,3.529 -7.411,3.529c-3.828,0 -5.814,-1.957 -7.41,-3.529c-1.37,-1.35 -2.361,-2.326 -4.475,-2.326c-2.114,0 -3.104,0.976 -4.474,2.326c-1.596,1.572 -3.582,3.529 -7.411,3.529c-3.828,0 -5.814,-1.957 -7.41,-3.529c-1.371,-1.35 -2.361,-2.326 -4.475,-2.326c-2.114,0 -3.104,0.976 -4.475,2.326c-1.595,1.572 -3.581,3.529 -7.41,3.529c-3.828,0 -5.814,-1.957 -7.41,-3.529c-1.371,-1.35 -2.361,-2.326 -4.475,-2.326c-2.114,0 -3.104,0.976 -4.475,2.326c-1.596,1.572 -3.582,3.529 -7.41,3.529c-3.829,0 -5.816,-1.957 -7.412,-3.529c-1.371,-1.35 -2.361,-2.326 -4.475,-2.326c-2.114,0 -3.104,0.976 -4.475,2.326c-1.596,1.572 -3.582,3.529 -7.411,3.529c-3.828,0 -5.813,-1.957 -7.41,-3.529c-1.37,-1.35 -2.36,-2.326 -4.474,-2.326c-2.114,0 -3.105,0.976 -4.476,2.326c-1.595,1.572 -3.582,3.529 -7.41,3.529c-3.828,0 -5.815,-1.957 -7.41,-3.529c-1.371,-1.35 -2.361,-2.326 -4.475,-2.326c-2.114,0 -3.105,0.976 -4.475,2.326c-1.595,1.572 -3.582,3.529 -7.41,3.529c-3.829,0 -5.815,-1.957 -7.41,-3.529c-1.371,-1.35 -2.361,-2.326 -4.476,-2.326c-2.113,0 -3.103,0.976 -4.474,2.326c-1.596,1.572 -3.582,3.529 -7.41,3.529c-3.829,0 -5.815,-1.957 -7.411,-3.529c-1.37,-1.35 -2.36,-2.326 -4.475,-2.326c-2.114,0 -3.104,0.976 -4.475,2.326c-1.595,1.572 -3.581,3.529 -7.41,3.529c-3.828,0 -5.814,-1.957 -7.41,-3.529c-1.371,-1.35 -2.361,-2.326 -4.475,-2.326c-2.114,0 -3.105,0.976 -4.475,2.326c-1.596,1.572 -3.582,3.529 -7.41,3.529c-3.829,0 -5.815,-1.957 -7.411,-3.529c-1.37,-1.35 -2.361,-2.326 -4.475,-2.326c-2.114,0 -3.104,0.976 -4.474,2.326c-1.596,1.572 -3.582,3.529 -7.411,3.529c-3.828,0 -5.814,-1.957 -7.41,-3.529c-1.37,-1.35 -2.361,-2.326 -4.475,-2.326c-2.114,0 -3.104,0.976 -4.474,2.326c-1.596,1.572 -3.582,3.529 -7.411,3.529c-3.828,0 -5.814,-1.957 -7.41,-3.529c-1.37,-1.35 -2.361,-2.326 -4.475,-2.326l-0.049,0c-2.08,0.015 -3.066,0.986 -4.426,2.326c-1.596,1.572 -3.582,3.529 -7.41,3.529c-3.829,0 -5.816,-1.957 -7.412,-3.529c-1.37,-1.35 -2.361,-2.326 -4.475,-2.326c-2.114,0 -3.104,0.976 -4.475,2.326c-1.596,1.572 -3.581,3.529 -7.411,3.529c-3.828,0 -5.813,-1.957 -7.41,-3.529c-1.37,-1.35 -2.36,-2.326 -4.474,-2.326c-2.114,0 -3.105,0.976 -4.475,2.326c-1.596,1.572 -3.583,3.529 -7.411,3.529c-3.828,0 -5.814,-1.957 -7.41,-3.529c-1.371,-1.35 -2.361,-2.326 -4.475,-2.326c-2.114,0 -3.105,0.976 -4.475,2.326c-1.595,1.572 -3.582,3.529 -7.41,3.529c-3.829,0 -5.815,-1.957 -7.41,-3.529c-1.371,-1.35 -2.361,-2.326 -4.476,-2.326c-2.113,0 -3.103,0.976 -4.474,2.326c-1.595,1.572 -3.582,3.529 -7.41,3.529c-3.829,0 -5.815,-1.957 -7.411,-3.529c-1.37,-1.35 -2.36,-2.326 -4.475,-2.326c-2.114,0 -3.104,0.976 -4.474,2.326c-1.596,1.572 -3.582,3.529 -7.411,3.529c-3.828,0 -5.814,-1.957 -7.41,-3.529c-1.371,-1.35 -2.361,-2.326 -4.475,-2.326c-2.114,0 -3.104,0.976 -4.475,2.326c-1.596,1.572 -3.582,3.529 -7.41,3.529c-3.829,0 -5.815,-1.957 -7.411,-3.529c-1.37,-1.35 -2.36,-2.326 -4.474,-2.326c-2.114,0 -3.105,0.976 -4.475,2.326c-1.596,1.572 -3.582,3.529 -7.41,3.529c-3.829,0 -5.815,-1.957 -7.411,-3.529c-1.37,-1.35 -2.361,-2.326 -4.475,-2.326c-2.114,0 -3.104,0.976 -4.474,2.326c-1.596,1.572 -3.582,3.529 -7.411,3.529c-3.828,0 -5.814,-1.957 -7.41,-3.529c-1.37,-1.35 -2.36,-2.326 -4.475,-2.326Z" style="fill:#fff;fill-rule:nonzero;"/><path d="M855.739,8.364c-2.114,0 -3.104,0.975 -4.475,2.326c-1.595,1.572 -3.582,3.529 -7.41,3.529c-3.829,0 -5.816,-1.957 -7.412,-3.529c-1.37,-1.351 -2.361,-2.326 -4.475,-2.326c-2.114,0 -3.104,0.975 -4.475,2.326c-1.596,1.572 -3.581,3.529 -7.41,3.529c-3.828,0 -5.814,-1.957 -7.411,-3.529c-1.37,-1.351 -2.36,-2.326 -4.474,-2.326c-2.114,0 -3.104,0.975 -4.475,2.326c-1.596,1.572 -3.583,3.529 -7.411,3.529c-3.828,0 -5.814,-1.957 -7.41,-3.529c-1.371,-1.351 -2.361,-2.326 -4.475,-2.326c-2.113,0 -3.105,0.975 -4.474,2.326c-1.596,1.572 -3.583,3.529 -7.411,3.529c-3.829,0 -5.815,-1.957 -7.41,-3.529c-1.371,-1.351 -2.361,-2.326 -4.475,-2.326c-2.114,0 -3.104,0.975 -4.475,2.326c-1.595,1.572 -3.582,3.529 -7.41,3.529c-3.829,0 -5.815,-1.957 -7.411,-3.529c-1.37,-1.351 -2.36,-2.326 -4.474,-2.326c-2.115,0 -3.105,0.975 -4.475,2.326c-1.596,1.572 -3.582,3.529 -7.411,3.529c-3.828,0 -5.814,-1.957 -7.41,-3.529c-1.371,-1.351 -2.361,-2.326 -4.475,-2.326c-2.114,0 -3.104,0.975 -4.475,2.326c-1.596,1.572 -3.582,3.529 -7.41,3.529c-3.829,0 -5.815,-1.957 -7.411,-3.529c-1.37,-1.351 -2.36,-2.326 -4.474,-2.326c-2.114,0 -3.105,0.975 -4.475,2.326c-1.596,1.572 -3.582,3.529 -7.41,3.529c-3.829,0 -5.815,-1.957 -7.411,-3.529c-1.37,-1.351 -2.36,-2.326 -4.474,-2.326c-2.115,0 -3.105,0.975 -4.475,2.326c-1.596,1.572 -3.582,3.529 -7.41,3.529c-3.829,0 -5.815,-1.957 -7.411,-3.529c-1.37,-1.351 -2.36,-2.326 -4.474,-2.326l-0.05,0c-2.08,0.015 -3.066,0.986 -4.426,2.326c-1.595,1.572 -3.582,3.529 -7.41,3.529c-3.829,0 -5.816,-1.957 -7.411,-3.529c-1.371,-1.351 -2.361,-2.326 -4.476,-2.326c-2.114,0 -3.104,0.975 -4.475,2.326c-1.596,1.572 -3.581,3.529 -7.41,3.529c-3.828,0 -5.814,-1.957 -7.411,-3.529c-1.369,-1.351 -2.36,-2.326 -4.474,-2.326c-2.114,0 -3.104,0.975 -4.475,2.326c-1.596,1.572 -3.582,3.529 -7.41,3.529c-3.829,0 -5.815,-1.957 -7.411,-3.529c-1.371,-1.351 -2.361,-2.326 -4.475,-2.326c-2.113,0 -3.105,0.975 -4.474,2.326c-1.596,1.572 -3.583,3.529 -7.411,3.529c-3.829,0 -5.814,-1.957 -7.41,-3.529c-1.371,-1.351 -2.361,-2.326 -4.475,-2.326c-2.113,0 -3.104,0.975 -4.475,2.326c-1.595,1.572 -3.582,3.529 -7.41,3.529c-3.829,0 -5.815,-1.957 -7.41,-3.529c-1.371,-1.351 -2.361,-2.326 -4.475,-2.326c-2.114,0 -3.105,0.975 -4.475,2.326c-1.596,1.572 -3.582,3.529 -7.411,3.529c-3.828,0 -5.814,-1.957 -7.41,-3.529c-1.37,-1.351 -2.361,-2.326 -4.475,-2.326c-2.114,0 -3.104,0.975 -4.475,2.326c-1.595,1.572 -3.582,3.529 -7.41,3.529c-3.829,0 -5.815,-1.957 -7.41,-3.529c-1.371,-1.351 -2.361,-2.326 -4.475,-2.326c-2.114,0 -3.104,0.975 -4.475,2.326c-1.596,1.572 -3.582,3.529 -7.41,3.529c-3.829,0 -5.815,-1.957 -7.411,-3.529c-1.37,-1.351 -2.36,-2.326 -4.474,-2.326c-2.114,0 -3.105,0.975 -4.475,2.326c-1.596,1.572 -3.582,3.529 -7.41,3.529c-3.829,0 -5.815,-1.957 -7.411,-3.529c-1.37,-1.351 -2.36,-2.326 -4.474,-2.326c-2.115,0 -3.105,0.975 -4.476,2.326c-1.595,1.572 -3.582,3.529 -7.41,3.529c-3.829,0 -5.816,-1.957 -7.411,-3.529c-1.371,-1.351 -2.361,-2.326 -4.476,-2.326c-2.114,0 -3.104,0.975 -4.475,2.326c-1.595,1.572 -3.581,3.529 -7.41,3.529c-3.828,0 -5.814,-1.957 -7.41,-3.529c-1.37,-1.351 -2.36,-2.326 -4.475,-2.326c-2.114,0 -3.104,0.975 -4.475,2.326c-1.596,1.572 -3.582,3.529 -7.41,3.529c-3.828,0 -5.815,-1.957 -7.411,-3.529c-1.371,-1.351 -2.361,-2.326 -4.475,-2.326c-2.113,0 -3.104,0.975 -4.474,2.326c-1.596,1.572 -3.583,3.529 -7.411,3.529c-3.829,0 -5.814,-1.957 -7.41,-3.529c-1.371,-1.351 -2.361,-2.326 -4.475,-2.326c-2.113,0 -3.104,0.975 -4.474,2.326c-1.596,1.572 -3.583,3.529 -7.411,3.529c-3.828,0 -5.815,-1.957 -7.41,-3.529c-1.371,-1.351 -2.361,-2.326 -4.475,-2.326c-2.114,0 -3.104,0.975 -4.475,2.326c-1.596,1.572 -3.582,3.529 -7.41,3.529c-3.829,0 -5.815,-1.957 -7.411,-3.529c-1.37,-1.351 -2.361,-2.326 -4.475,-2.326c-2.114,0 -3.104,0.975 -4.475,2.326c-1.595,1.572 -3.582,3.529 -7.41,3.529c-3.828,0 -5.814,-1.957 -7.41,-3.529c-1.371,-1.351 -2.361,-2.326 -4.475,-2.326c-2.114,0 -3.104,0.975 -4.475,2.326c-1.596,1.572 -3.582,3.529 -7.41,3.529c-3.829,0 -5.815,-1.957 -7.41,-3.529c-1.371,-1.351 -2.361,-2.326 -4.475,-2.326c-2.114,0 -3.104,0.975 -4.475,2.326c-1.596,1.572 -3.582,3.529 -7.41,3.529c-3.829,0 -5.815,-1.957 -7.411,-3.529c-1.37,-1.351 -2.36,-2.326 -4.474,-2.326l-0.049,0c-2.081,0.015 -3.066,0.986 -4.426,2.326c-1.596,1.572 -3.583,3.529 -7.411,3.529c-3.829,0 -5.816,-1.957 -7.411,-3.529c-1.371,-1.351 -2.361,-2.326 -4.475,-2.326c-2.115,0 -3.105,0.975 -4.476,2.326c-1.595,1.572 -3.581,3.529 -7.41,3.529c-3.828,0 -5.814,-1.957 -7.41,-3.529c-1.37,-1.351 -2.36,-2.326 -4.475,-2.326c-2.114,0 -3.104,0.975 -4.475,2.326c-1.596,1.572 -3.582,3.529 -7.41,3.529c-3.828,0 -5.815,-1.957 -7.411,-3.529c-1.37,-1.351 -2.361,-2.326 -4.475,-2.326c-2.113,0 -3.104,0.975 -4.474,2.326c-1.596,1.572 -3.582,3.529 -7.41,3.529c-3.829,0 -5.815,-1.957 -7.411,-3.529c-1.371,-1.351 -2.361,-2.326 -4.475,-2.326c-2.113,0 -3.103,0.975 -4.474,2.326c-1.596,1.572 -3.583,3.529 -7.411,3.529c-3.828,0 -5.814,-1.957 -7.41,-3.529c-1.371,-1.351 -2.361,-2.326 -4.475,-2.326c-2.114,0 -3.104,0.975 -4.475,2.326c-1.596,1.572 -3.582,3.529 -7.41,3.529c-3.829,0 -5.815,-1.957 -7.411,-3.529c-1.37,-1.351 -2.36,-2.326 -4.475,-2.326c-2.114,0 -3.104,0.975 -4.474,2.326c-1.596,1.572 -3.582,3.529 -7.411,3.529c-3.828,0 -5.814,-1.957 -7.41,-3.529c-1.371,-1.351 -2.361,-2.326 -4.475,-2.326c-2.114,0 -3.104,0.975 -4.475,2.326c-1.595,1.572 -3.581,3.529 -7.41,3.529c-3.828,0 -5.815,-1.957 -7.41,-3.529c-1.371,-1.351 -2.361,-2.326 -4.475,-2.326c-2.114,0 -3.104,0.975 -4.475,2.326c-1.596,1.572 -3.582,3.529 -7.41,3.529c-3.829,0 -5.815,-1.957 -7.41,-3.529c-1.371,-1.351 -2.361,-2.326 -4.475,-2.326l0,-4.183c3.828,0 5.814,1.957 7.41,3.53c1.371,1.35 2.361,2.326 4.475,2.326c2.114,0 3.104,-0.976 4.475,-2.326c1.595,-1.573 3.581,-3.53 7.41,-3.53c3.828,0 5.814,1.957 7.41,3.53c1.371,1.35 2.361,2.326 4.475,2.326c2.114,0 3.104,-0.976 4.475,-2.326c1.596,-1.573 3.582,-3.53 7.41,-3.53c3.829,0 5.815,1.957 7.41,3.53c1.371,1.35 2.361,2.326 4.475,2.326c2.114,0 3.105,-0.976 4.475,-2.326c1.596,-1.573 3.582,-3.53 7.41,-3.53c3.829,0 5.815,1.957 7.411,3.53c1.37,1.35 2.361,2.326 4.475,2.326c2.114,0 3.104,-0.976 4.475,-2.326c1.595,-1.573 3.581,-3.53 7.41,-3.53c3.828,0 5.814,1.957 7.41,3.53c1.371,1.35 2.361,2.326 4.475,2.326c2.115,0 3.105,-0.976 4.475,-2.326c1.596,-1.573 3.582,-3.53 7.41,-3.53c3.829,0 5.815,1.957 7.41,3.53c1.371,1.35 2.361,2.326 4.476,2.326c2.114,0 3.104,-0.976 4.474,-2.326c1.596,-1.573 3.582,-3.53 7.41,-3.53c3.829,0 5.815,1.957 7.411,3.53c1.37,1.35 2.361,2.326 4.475,2.326c2.114,0 3.104,-0.976 4.475,-2.326c1.596,-1.573 3.581,-3.53 7.41,-3.53c3.828,0 5.815,1.957 7.411,3.53c1.37,1.35 2.36,2.326 4.474,2.326c2.114,0 3.104,-0.976 4.475,-2.326c1.596,-1.573 3.583,-3.53 7.411,-3.53c3.829,0 5.814,1.957 7.411,3.53c1.37,1.35 2.36,2.326 4.475,2.326c2.115,0 3.105,-0.976 4.476,-2.326c1.595,-1.573 3.581,-3.53 7.41,-3.53l0.045,0c3.799,0.015 5.776,1.963 7.365,3.53c1.371,1.35 2.361,2.326 4.475,2.326c2.114,0 3.104,-0.976 4.475,-2.326c1.595,-1.573 3.581,-3.53 7.41,-3.53c3.828,0 5.814,1.957 7.41,3.53c1.371,1.35 2.361,2.326 4.475,2.326c2.114,0 3.104,-0.976 4.475,-2.326c1.595,-1.573 3.581,-3.53 7.41,-3.53c3.828,0 5.814,1.957 7.41,3.53c1.371,1.35 2.361,2.326 4.475,2.326c2.114,0 3.104,-0.976 4.475,-2.326c1.596,-1.573 3.582,-3.53 7.41,-3.53c3.829,0 5.815,1.957 7.411,3.53c1.37,1.35 2.361,2.326 4.475,2.326c2.114,0 3.104,-0.976 4.474,-2.326c1.596,-1.573 3.582,-3.53 7.411,-3.53c3.828,0 5.814,1.957 7.41,3.53c1.371,1.35 2.361,2.326 4.475,2.326c2.115,0 3.105,-0.976 4.474,-2.326c1.597,-1.573 3.583,-3.53 7.411,-3.53c3.829,0 5.815,1.957 7.41,3.53c1.371,1.35 2.361,2.326 4.475,2.326c2.115,0 3.105,-0.976 4.475,-2.326c1.596,-1.573 3.582,-3.53 7.41,-3.53c3.829,0 5.815,1.957 7.41,3.53c1.371,1.35 2.361,2.326 4.476,2.326c2.114,0 3.104,-0.976 4.475,-2.326c1.596,-1.573 3.581,-3.53 7.41,-3.53c3.828,0 5.815,1.957 7.411,3.53c1.369,1.35 2.36,2.326 4.474,2.326c2.114,0 3.104,-0.976 4.475,-2.326c1.596,-1.573 3.582,-3.53 7.41,-3.53c3.83,0 5.815,1.957 7.412,3.53c1.37,1.35 2.36,2.326 4.475,2.326c2.114,0 3.105,-0.976 4.475,-2.326c1.596,-1.573 3.582,-3.53 7.411,-3.53c3.828,0 5.814,1.957 7.41,3.53c1.37,1.35 2.361,2.326 4.475,2.326c2.114,0 3.104,-0.976 4.474,-2.326c1.596,-1.573 3.582,-3.53 7.411,-3.53c3.828,0 5.814,1.957 7.41,3.53c1.37,1.35 2.361,2.326 4.475,2.326c2.114,0 3.104,-0.976 4.475,-2.326c1.595,-1.573 3.581,-3.53 7.41,-3.53c3.828,0 5.814,1.957 7.41,3.53c1.371,1.35 2.361,2.326 4.475,2.326c2.114,0 3.104,-0.976 4.475,-2.326c1.596,-1.573 3.582,-3.53 7.41,-3.53c3.829,0 5.815,1.957 7.411,3.53c1.37,1.35 2.36,2.326 4.474,2.326c2.115,0 3.105,-0.976 4.475,-2.326c1.596,-1.573 3.582,-3.53 7.411,-3.53c3.828,0 5.814,1.957 7.41,3.53c1.371,1.35 2.361,2.326 4.475,2.326c2.114,0 3.105,-0.976 4.474,-2.326c1.597,-1.573 3.583,-3.53 7.411,-3.53c3.829,0 5.814,1.957 7.41,3.53c1.371,1.35 2.361,2.326 4.475,2.326c2.115,0 3.105,-0.976 4.475,-2.326c1.596,-1.573 3.582,-3.53 7.41,-3.53c3.829,0 5.815,1.957 7.41,3.53c1.371,1.35 2.361,2.326 4.476,2.326c2.114,0 3.104,-0.976 4.475,-2.326c1.595,-1.573 3.581,-3.53 7.41,-3.53c3.828,0 5.815,1.957 7.41,3.53c1.37,1.35 2.36,2.326 4.475,2.326c2.114,0 3.104,-0.976 4.475,-2.326c1.596,-1.573 3.582,-3.53 7.41,-3.53c3.829,0 5.815,1.957 7.412,3.53c1.369,1.35 2.36,2.326 4.475,2.326c2.114,0 3.104,-0.976 4.475,-2.326c1.596,-1.573 3.582,-3.53 7.411,-3.53l0.044,0c3.799,0.015 5.776,1.963 7.366,3.53c1.37,1.35 2.36,2.326 4.475,2.326c2.114,0 3.104,-0.976 4.474,-2.326c1.596,-1.573 3.582,-3.53 7.411,-3.53c3.828,0 5.814,1.957 7.41,3.53c1.37,1.35 2.361,2.326 4.475,2.326c2.114,0 3.104,-0.976 4.474,-2.326c1.596,-1.573 3.582,-3.53 7.411,-3.53c3.828,0 5.814,1.957 7.41,3.53c1.37,1.35 2.361,2.326 4.475,2.326c2.114,0 3.104,-0.976 4.475,-2.326c1.595,-1.573 3.582,-3.53 7.41,-3.53c3.829,0 5.815,1.957 7.411,3.53c1.37,1.35 2.36,2.326 4.474,2.326c2.114,0 3.105,-0.976 4.475,-2.326c1.596,-1.573 3.582,-3.53 7.411,-3.53c3.828,0 5.814,1.957 7.41,3.53c1.37,1.35 2.361,2.326 4.475,2.326c2.114,0 3.104,-0.976 4.474,-2.326c1.597,-1.573 3.583,-3.53 7.411,-3.53c3.829,0 5.814,1.957 7.41,3.53c1.371,1.35 2.361,2.326 4.475,2.326c2.114,0 3.105,-0.976 4.474,-2.326c1.597,-1.573 3.583,-3.53 7.411,-3.53c3.829,0 5.815,1.957 7.41,3.53c1.371,1.35 2.361,2.326 4.475,2.326c2.115,0 3.105,-0.976 4.476,-2.326c1.595,-1.573 3.581,-3.53 7.41,-3.53c3.828,0 5.815,1.957 7.41,3.53c1.37,1.35 2.36,2.326 4.475,2.326c2.114,0 3.104,-0.976 4.475,-2.326c1.595,-1.573 3.582,-3.53 7.41,-3.53c3.829,0 5.815,1.957 7.412,3.53c1.369,1.35 2.36,2.326 4.475,2.326c2.114,0 3.104,-0.976 4.475,-2.326c1.596,-1.573 3.581,-3.53 7.41,-3.53c3.829,0 5.815,1.957 7.411,3.53c1.37,1.35 2.36,2.326 4.474,2.326c2.114,0 3.105,-0.976 4.475,-2.326c1.596,-1.573 3.582,-3.53 7.41,-3.53c3.829,0 5.815,1.957 7.411,3.53c1.37,1.35 2.36,2.326 4.475,2.326c2.114,0 3.104,-0.976 4.474,-2.326c1.596,-1.573 3.582,-3.53 7.411,-3.53c3.828,0 5.814,1.957 7.41,3.53c1.37,1.35 2.361,2.326 4.475,2.326c2.114,0 3.104,-0.976 4.475,-2.326c1.595,-1.573 3.581,-3.53 7.41,-3.53c3.829,0 5.815,1.957 7.41,3.53c1.371,1.35 2.361,2.326 4.475,2.326c2.114,0 3.105,-0.976 4.475,-2.326c1.596,-1.573 3.582,-3.53 7.41,-3.53c3.829,0 5.815,1.957 7.411,3.53c1.37,1.35 2.361,2.326 4.475,2.326c2.114,0 3.104,-0.976 4.474,-2.326c1.597,-1.573 3.582,-3.53 7.41,-3.53c3.83,0 5.815,1.957 7.411,3.53c1.371,1.35 2.361,2.326 4.475,2.326c2.114,0 3.105,-0.976 4.474,-2.326c1.597,-1.573 3.583,-3.53 7.411,-3.53c3.829,0 5.814,1.957 7.41,3.53c1.371,1.35 2.361,2.326 4.475,2.326c2.115,0 3.105,-0.976 4.476,-2.326c1.595,-1.573 3.581,-3.53 7.41,-3.53c3.828,0 5.815,1.957 7.41,3.53c1.37,1.35 2.36,2.326 4.474,2.326c2.115,0 3.105,-0.976 4.476,-2.326c1.595,-1.573 3.582,-3.53 7.41,-3.53c3.829,0 5.815,1.957 7.411,3.53c1.37,1.35 2.36,2.326 4.476,2.326c2.114,0 3.104,-0.976 4.475,-2.326c1.596,-1.573 3.581,-3.53 7.41,-3.53l0.045,0c3.799,0.015 5.776,1.963 7.366,3.53c1.37,1.35 2.36,2.326 4.474,2.326c2.114,0 3.105,-0.976 4.475,-2.326c1.596,-1.573 3.582,-3.53 7.41,-3.53c3.829,0 5.815,1.957 7.411,3.53c1.37,1.35 2.36,2.326 4.474,2.326c2.115,0 3.105,-0.976 4.475,-2.326c1.596,-1.573 3.582,-3.53 7.41,-3.53c3.829,0 5.815,1.957 7.411,3.53c1.37,1.35 2.36,2.326 4.475,2.326c2.114,0 3.104,-0.976 4.474,-2.326c1.596,-1.573 3.582,-3.53 7.411,-3.53c3.828,0 5.814,1.957 7.41,3.53c1.371,1.35 2.361,2.326 4.475,2.326c2.114,0 3.104,-0.976 4.475,-2.326c1.596,-1.573 3.582,-3.53 7.41,-3.53c3.829,0 5.815,1.957 7.411,3.53c1.37,1.35 2.361,2.326 4.475,2.326c2.114,0 3.104,-0.976 4.474,-2.326c1.597,-1.573 3.582,-3.53 7.41,-3.53c3.829,0 5.815,1.957 7.411,3.53c1.37,1.35 2.361,2.326 4.475,2.326c2.114,0 3.104,-0.976 4.474,-2.326c1.597,-1.573 3.583,-3.53 7.411,-3.53c3.829,0 5.814,1.957 7.41,3.53c1.371,1.35 2.361,2.326 4.475,2.326c2.114,0 3.105,-0.976 4.475,-2.326c1.596,-1.573 3.582,-3.53 7.411,-3.53c3.828,0 5.814,1.957 7.41,3.53c1.37,1.35 2.36,2.326 4.474,2.326c2.115,0 3.105,-0.976 4.476,-2.326c1.595,-1.573 3.582,-3.53 7.41,-3.53c3.829,0 5.815,1.957 7.411,3.53c1.37,1.35 2.36,2.326 4.476,2.326c2.114,0 3.104,-0.976 4.475,-2.326c1.596,-1.573 3.581,-3.53 7.41,-3.53c3.829,0 5.815,1.957 7.41,3.53c1.371,1.35 2.361,2.326 4.475,2.326c2.114,0 3.104,-0.976 4.475,-2.326c1.596,-1.573 3.582,-3.53 7.41,-3.53c3.829,0 5.815,1.957 7.41,3.53c1.371,1.35 2.361,2.326 4.475,2.326c2.114,0 3.105,-0.976 4.475,-2.326c1.596,-1.573 3.582,-3.53 7.41,-3.53c3.829,0 5.815,1.957 7.411,3.53c1.37,1.35 2.36,2.326 4.474,2.326c2.115,0 3.105,-0.976 4.475,-2.326c1.596,-1.573 3.582,-3.53 7.411,-3.53c3.828,0 5.814,1.957 7.41,3.53c1.371,1.35 2.361,2.326 4.475,2.326c2.114,0 3.104,-0.976 4.475,-2.326c1.596,-1.573 3.582,-3.53 7.41,-3.53c3.829,0 5.815,1.957 7.411,3.53c1.37,1.35 2.36,2.326 4.474,2.326c2.115,0 3.105,-0.976 4.475,-2.326c1.597,-1.573 3.582,-3.53 7.41,-3.53c3.829,0 5.815,1.957 7.411,3.53c1.37,1.35 2.361,2.326 4.475,2.326c2.114,0 3.104,-0.976 4.474,-2.326c1.597,-1.573 3.582,-3.53 7.41,-3.53c3.829,0 5.815,1.957 7.411,3.53c1.371,1.35 2.361,2.326 4.475,2.326c2.114,0 3.104,-0.976 4.475,-2.326c1.596,-1.573 3.582,-3.53 7.411,-3.53c3.828,0 5.814,1.957 7.41,3.53c1.37,1.35 2.36,2.326 4.474,2.326c2.114,0 3.105,-0.976 4.475,-2.326c1.596,-1.573 3.583,-3.53 7.411,-3.53c3.829,0 5.815,1.957 7.411,3.53c1.37,1.35 2.36,2.326 4.476,2.326c2.114,0 3.104,-0.976 4.475,-2.326c1.595,-1.573 3.581,-3.53 7.41,-3.53l0.045,0c3.799,0.015 5.776,1.963 7.365,3.53c1.371,1.35 2.361,2.326 4.475,2.326c2.114,0 3.104,-0.976 4.475,-2.326c1.595,-1.573 3.582,-3.53 7.41,-3.53c3.828,0 5.815,1.957 7.41,3.53c1.371,1.35 2.361,2.326 4.475,2.326c2.114,0 3.104,-0.976 4.475,-2.326c1.596,-1.573 3.582,-3.53 7.41,-3.53c3.829,0 5.815,1.957 7.411,3.53c1.37,1.35 2.36,2.326 4.474,2.326c2.114,0 3.105,-0.976 4.475,-2.326c1.596,-1.573 3.582,-3.53 7.411,-3.53c3.828,0 5.814,1.957 7.41,3.53c1.371,1.35 2.361,2.326 4.475,2.326c2.114,0 3.104,-0.976 4.475,-2.326c1.595,-1.573 3.582,-3.53 7.41,-3.53c3.829,0 5.815,1.957 7.41,3.53c1.371,1.35 2.361,2.326 4.475,2.326c2.115,0 3.105,-0.976 4.475,-2.326c1.596,-1.573 3.582,-3.53 7.41,-3.53c3.829,0 5.815,1.957 7.41,3.53c1.371,1.35 2.361,2.326 4.476,2.326c2.114,0 3.104,-0.976 4.474,-2.326c1.597,-1.573 3.582,-3.53 7.41,-3.53c3.829,0 5.815,1.957 7.411,3.53c1.37,1.35 2.361,2.326 4.475,2.326c2.114,0 3.104,-0.976 4.475,-2.326c1.596,-1.573 3.581,-3.53 7.411,-3.53c3.828,0 5.814,1.957 7.41,3.53c1.37,1.35 2.36,2.326 4.474,2.326c2.114,0 3.105,-0.976 4.475,-2.326c1.596,-1.573 3.583,-3.53 7.411,-3.53c3.829,0 5.814,1.957 7.411,3.53c1.37,1.35 2.36,2.326 4.475,2.326c2.115,0 3.105,-0.976 4.476,-2.326c1.595,-1.573 3.581,-3.53 7.41,-3.53l0,4.183c-2.114,0 -3.104,0.975 -4.475,2.326c-1.596,1.572 -3.583,3.529 -7.411,3.529c-3.829,0 -5.815,-1.957 -7.411,-3.529c-1.371,-1.351 -2.361,-2.326 -4.475,-2.326c-2.115,0 -3.105,0.975 -4.476,2.326c-1.595,1.572 -3.581,3.529 -7.41,3.529c-3.828,0 -5.814,-1.957 -7.41,-3.529c-1.37,-1.351 -2.36,-2.326 -4.474,-2.326c-2.115,0 -3.105,0.975 -4.476,2.326c-1.595,1.572 -3.582,3.529 -7.41,3.529c-3.828,0 -5.815,-1.957 -7.41,-3.529c-1.371,-1.351 -2.361,-2.326 -4.476,-2.326c-2.113,0 -3.104,0.975 -4.474,2.326c-1.596,1.572 -3.582,3.529 -7.41,3.529c-3.829,0 -5.815,-1.957 -7.411,-3.529c-1.37,-1.351 -2.361,-2.326 -4.475,-2.326c-2.113,0 -3.103,0.975 -4.474,2.326c-1.596,1.572 -3.582,3.529 -7.411,3.529c-3.828,0 -5.814,-1.957 -7.41,-3.529c-1.371,-1.351 -2.361,-2.326 -4.475,-2.326c-2.114,0 -3.104,0.975 -4.475,2.326c-1.596,1.572 -3.582,3.529 -7.41,3.529c-3.829,0 -5.815,-1.957 -7.411,-3.529c-1.37,-1.351 -2.36,-2.326 -4.474,-2.326c-2.115,0 -3.105,0.975 -4.475,2.326c-1.596,1.572 -3.582,3.529 -7.411,3.529c-3.828,0 -5.814,-1.957 -7.41,-3.529c-1.37,-1.351 -2.361,-2.326 -4.475,-2.326c-2.114,0 -3.104,0.975 -4.474,2.326c-1.596,1.572 -3.582,3.529 -7.411,3.529c-3.828,0 -5.814,-1.957 -7.41,-3.529c-1.371,-1.351 -2.361,-2.326 -4.475,-2.326c-2.114,0 -3.104,0.975 -4.475,2.326c-1.595,1.572 -3.582,3.529 -7.41,3.529c-3.828,0 -5.814,-1.957 -7.41,-3.529c-1.371,-1.351 -2.361,-2.326 -4.475,-2.326l-0.049,0c-2.081,0.015 -3.066,0.986 -4.426,2.326c-1.596,1.572 -3.582,3.529 -7.41,3.529c-3.83,0 -5.816,-1.957 -7.412,-3.529c-1.371,-1.351 -2.361,-2.326 -4.475,-2.326c-2.114,0 -3.105,0.975 -4.475,2.326c-1.596,1.572 -3.582,3.529 -7.411,3.529c-3.828,0 -5.813,-1.957 -7.41,-3.529c-1.37,-1.351 -2.36,-2.326 -4.474,-2.326c-2.115,0 -3.105,0.975 -4.476,2.326c-1.595,1.572 -3.582,3.529 -7.41,3.529c-3.828,0 -5.815,-1.957 -7.41,-3.529c-1.371,-1.351 -2.361,-2.326 -4.476,-2.326c-2.113,0 -3.104,0.975 -4.474,2.326c-1.595,1.572 -3.582,3.529 -7.41,3.529c-3.829,0 -5.815,-1.957 -7.411,-3.529c-1.37,-1.351 -2.361,-2.326 -4.475,-2.326c-2.113,0 -3.103,0.975 -4.474,2.326c-1.596,1.572 -3.582,3.529 -7.411,3.529c-3.828,0 -5.814,-1.957 -7.41,-3.529c-1.371,-1.351 -2.361,-2.326 -4.475,-2.326c-2.114,0 -3.104,0.975 -4.475,2.326c-1.595,1.572 -3.582,3.529 -7.41,3.529c-3.829,0 -5.815,-1.957 -7.41,-3.529c-1.371,-1.351 -2.361,-2.326 -4.475,-2.326c-2.114,0 -3.105,0.975 -4.475,2.326c-1.596,1.572 -3.582,3.529 -7.411,3.529c-3.828,0 -5.814,-1.957 -7.41,-3.529c-1.37,-1.351 -2.361,-2.326 -4.475,-2.326c-2.114,0 -3.104,0.975 -4.474,2.326c-1.596,1.572 -3.582,3.529 -7.411,3.529c-3.828,0 -5.814,-1.957 -7.41,-3.529c-1.371,-1.351 -2.361,-2.326 -4.475,-2.326c-2.114,0 -3.104,0.975 -4.475,2.326c-1.595,1.572 -3.581,3.529 -7.41,3.529c-3.828,0 -5.814,-1.957 -7.41,-3.529c-1.371,-1.351 -2.361,-2.326 -4.475,-2.326c-2.114,0 -3.104,0.975 -4.475,2.326c-1.596,1.572 -3.582,3.529 -7.41,3.529c-3.829,0 -5.816,-1.957 -7.412,-3.529c-1.371,-1.351 -2.361,-2.326 -4.475,-2.326c-2.114,0 -3.104,0.975 -4.475,2.326c-1.596,1.572 -3.582,3.529 -7.411,3.529c-3.828,0 -5.813,-1.957 -7.41,-3.529c-1.37,-1.351 -2.36,-2.326 -4.474,-2.326c-2.114,0 -3.105,0.975 -4.476,2.326c-1.595,1.572 -3.582,3.529 -7.41,3.529c-3.828,0 -5.815,-1.957 -7.41,-3.529c-1.371,-1.351 -2.361,-2.326 -4.475,-2.326c-2.114,0 -3.105,0.975 -4.475,2.326c-1.595,1.572 -3.582,3.529 -7.41,3.529c-3.829,0 -5.815,-1.957 -7.41,-3.529c-1.371,-1.351 -2.361,-2.326 -4.476,-2.326c-2.113,0 -3.103,0.975 -4.474,2.326c-1.596,1.572 -3.582,3.529 -7.41,3.529c-3.829,0 -5.815,-1.957 -7.411,-3.529c-1.37,-1.351 -2.36,-2.326 -4.475,-2.326c-2.114,0 -3.104,0.975 -4.475,2.326c-1.595,1.572 -3.581,3.529 -7.41,3.529c-3.828,0 -5.814,-1.957 -7.41,-3.529c-1.371,-1.351 -2.361,-2.326 -4.475,-2.326c-2.114,0 -3.105,0.975 -4.475,2.326c-1.596,1.572 -3.582,3.529 -7.41,3.529c-3.829,0 -5.815,-1.957 -7.411,-3.529c-1.37,-1.351 -2.361,-2.326 -4.475,-2.326c-2.114,0 -3.104,0.975 -4.474,2.326c-1.596,1.572 -3.582,3.529 -7.411,3.529c-3.828,0 -5.814,-1.957 -7.41,-3.529c-1.37,-1.351 -2.361,-2.326 -4.475,-2.326c-2.114,0 -3.104,0.975 -4.474,2.326c-1.596,1.572 -3.582,3.529 -7.411,3.529c-3.828,0 -5.814,-1.957 -7.41,-3.529c-1.37,-1.351 -2.361,-2.326 -4.475,-2.326l-0.049,0c-2.08,0.015 -3.066,0.986 -4.426,2.326c-1.596,1.572 -3.582,3.529 -7.41,3.529c-3.829,0 -5.816,-1.957 -7.412,-3.529c-1.37,-1.351 -2.361,-2.326 -4.475,-2.326c-2.114,0 -3.104,0.975 -4.475,2.326c-1.596,1.572 -3.581,3.529 -7.411,3.529c-3.828,0 -5.813,-1.957 -7.41,-3.529c-1.37,-1.351 -2.36,-2.326 -4.474,-2.326c-2.114,0 -3.105,0.975 -4.475,2.326c-1.596,1.572 -3.583,3.529 -7.411,3.529c-3.828,0 -5.814,-1.957 -7.41,-3.529c-1.371,-1.351 -2.361,-2.326 -4.475,-2.326c-2.114,0 -3.105,0.975 -4.475,2.326c-1.595,1.572 -3.582,3.529 -7.41,3.529c-3.829,0 -5.815,-1.957 -7.41,-3.529c-1.371,-1.351 -2.361,-2.326 -4.476,-2.326c-2.113,0 -3.103,0.975 -4.474,2.326c-1.595,1.572 -3.582,3.529 -7.41,3.529c-3.829,0 -5.815,-1.957 -7.411,-3.529c-1.37,-1.351 -2.36,-2.326 -4.475,-2.326c-2.114,0 -3.104,0.975 -4.474,2.326c-1.596,1.572 -3.582,3.529 -7.411,3.529c-3.828,0 -5.814,-1.957 -7.41,-3.529c-1.371,-1.351 -2.361,-2.326 -4.475,-2.326c-2.114,0 -3.104,0.975 -4.475,2.326c-1.596,1.572 -3.582,3.529 -7.41,3.529c-3.829,0 -5.815,-1.957 -7.411,-3.529c-1.37,-1.351 -2.36,-2.326 -4.474,-2.326c-2.114,0 -3.105,0.975 -4.475,2.326c-1.596,1.572 -3.582,3.529 -7.41,3.529c-3.829,0 -5.815,-1.957 -7.411,-3.529c-1.37,-1.351 -2.361,-2.326 -4.475,-2.326c-2.114,0 -3.104,0.975 -4.474,2.326c-1.596,1.572 -3.582,3.529 -7.411,3.529c-3.828,0 -5.814,-1.957 -7.41,-3.529c-1.37,-1.351 -2.36,-2.326 -4.475,-2.326Z" style="fill:#fff;fill-rule:nonzero;"/></g></g></svg>